<svg xmlns="http://www.w3.org/2000/svg" viewBox="0 0 640 240" fill="none" aria-hidden="true">
<g fill="#2A2A8C">
<circle cx="0.0" cy="154.1" r="1.38" opacity="0.60"/>
<circle cx="2.7" cy="155.4" r="1.33" opacity="0.59"/>
<circle cx="5.4" cy="156.7" r="1.29" opacity="0.59"/>
<circle cx="8.0" cy="157.9" r="1.25" opacity="0.58"/>
<rect x="6.5" y="158.2" width="8.4" height="1.8" rx="0.9" transform="rotate(23.6 10.7 159.1)" opacity="0.57"/>
<circle cx="13.4" cy="160.3" r="1.17" opacity="0.56"/>
<circle cx="16.1" cy="161.4" r="1.13" opacity="0.55"/>
<circle cx="18.7" cy="162.5" r="1.09" opacity="0.55"/>
<circle cx="21.4" cy="163.5" r="1.06" opacity="0.54"/>
<circle cx="24.1" cy="164.5" r="1.02" opacity="0.53"/>
<circle cx="26.8" cy="165.4" r="0.99" opacity="0.53"/>
<circle cx="29.5" cy="166.3" r="0.96" opacity="0.52"/>
<circle cx="32.1" cy="167.2" r="0.93" opacity="0.51"/>
<rect x="30.6" y="167.1" width="8.4" height="1.8" rx="0.9" transform="rotate(16.1 34.8 168.0)" opacity="0.51"/>
<circle cx="37.5" cy="168.7" r="0.88" opacity="0.50"/>
<circle cx="40.2" cy="169.5" r="0.85" opacity="0.50"/>
<circle cx="42.8" cy="170.1" r="0.83" opacity="0.49"/>
<circle cx="45.5" cy="170.7" r="0.81" opacity="0.49"/>
<circle cx="48.2" cy="171.3" r="0.79" opacity="0.49"/>
<circle cx="50.9" cy="171.8" r="0.77" opacity="0.48"/>
<circle cx="53.6" cy="172.3" r="0.76" opacity="0.48"/>
<circle cx="56.2" cy="172.7" r="0.75" opacity="0.48"/>
<rect x="54.7" y="172.1" width="8.4" height="1.8" rx="0.9" transform="rotate(6.7 58.9 173.0)" opacity="0.47"/>
<circle cx="61.6" cy="173.3" r="0.72" opacity="0.47"/>
<circle cx="64.3" cy="173.6" r="0.72" opacity="0.47"/>
<circle cx="66.9" cy="173.7" r="0.71" opacity="0.47"/>
<circle cx="69.6" cy="173.9" r="0.70" opacity="0.47"/>
<circle cx="72.3" cy="174.0" r="0.70" opacity="0.47"/>
<circle cx="75.0" cy="174.0" r="0.70" opacity="0.47"/>
<circle cx="77.7" cy="174.0" r="0.70" opacity="0.47"/>
<circle cx="80.3" cy="173.9" r="0.70" opacity="0.47"/>
<rect x="78.8" y="172.9" width="8.4" height="1.8" rx="0.9" transform="rotate(-3.6 83.0 173.8)" opacity="0.47"/>
<circle cx="85.7" cy="173.6" r="0.71" opacity="0.47"/>
<circle cx="88.4" cy="173.3" r="0.72" opacity="0.47"/>
<circle cx="91.0" cy="173.1" r="0.73" opacity="0.47"/>
<circle cx="93.7" cy="172.7" r="0.74" opacity="0.48"/>
<circle cx="96.4" cy="172.3" r="0.76" opacity="0.48"/>
<circle cx="99.1" cy="171.9" r="0.77" opacity="0.48"/>
<circle cx="101.8" cy="171.4" r="0.79" opacity="0.49"/>
<circle cx="104.4" cy="170.8" r="0.81" opacity="0.49"/>
<rect x="102.9" y="169.3" width="8.4" height="1.8" rx="0.9" transform="rotate(-13.4 107.1 170.2)" opacity="0.49"/>
<circle cx="109.8" cy="169.6" r="0.85" opacity="0.50"/>
<circle cx="112.5" cy="168.9" r="0.87" opacity="0.50"/>
<circle cx="115.1" cy="168.1" r="0.90" opacity="0.51"/>
<circle cx="117.8" cy="167.3" r="0.93" opacity="0.51"/>
<circle cx="120.5" cy="166.5" r="0.96" opacity="0.52"/>
<circle cx="123.2" cy="165.6" r="0.99" opacity="0.53"/>
<circle cx="125.9" cy="164.6" r="1.02" opacity="0.53"/>
<circle cx="128.5" cy="163.6" r="1.05" opacity="0.54"/>
<rect x="127.0" y="161.7" width="8.4" height="1.8" rx="0.9" transform="rotate(-21.6 131.2 162.6)" opacity="0.55"/>
<circle cx="133.9" cy="161.5" r="1.12" opacity="0.55"/>
<circle cx="136.6" cy="160.4" r="1.16" opacity="0.56"/>
<circle cx="139.2" cy="159.3" r="1.20" opacity="0.57"/>
<circle cx="141.9" cy="158.1" r="1.24" opacity="0.58"/>
<circle cx="144.6" cy="156.8" r="1.28" opacity="0.58"/>
<circle cx="147.3" cy="155.6" r="1.33" opacity="0.59"/>
<circle cx="150.0" cy="154.3" r="1.37" opacity="0.60"/>
<circle cx="152.6" cy="152.9" r="1.42" opacity="0.61"/>
<rect x="151.1" y="150.6" width="8.4" height="1.8" rx="0.9" transform="rotate(-27.6 155.3 151.5)" opacity="0.62"/>
<circle cx="158.0" cy="150.1" r="1.51" opacity="0.63"/>
<circle cx="160.7" cy="148.7" r="1.56" opacity="0.64"/>
<circle cx="163.3" cy="147.2" r="1.61" opacity="0.65"/>
<circle cx="166.0" cy="145.7" r="1.66" opacity="0.66"/>
<circle cx="168.7" cy="144.2" r="1.71" opacity="0.67"/>
<circle cx="171.4" cy="142.7" r="1.76" opacity="0.68"/>
<circle cx="174.1" cy="141.1" r="1.82" opacity="0.69"/>
<circle cx="176.7" cy="139.5" r="1.87" opacity="0.70"/>
<rect x="175.2" y="137.0" width="8.4" height="1.8" rx="0.9" transform="rotate(-31.3 179.4 137.9)" opacity="0.71"/>
<circle cx="182.1" cy="136.3" r="1.98" opacity="0.73"/>
<circle cx="184.8" cy="134.6" r="2.04" opacity="0.74"/>
<circle cx="187.4" cy="132.9" r="2.09" opacity="0.75"/>
<circle cx="190.1" cy="131.3" r="2.15" opacity="0.76"/>
<circle cx="192.8" cy="129.6" r="2.21" opacity="0.77"/>
<circle cx="195.5" cy="127.9" r="2.27" opacity="0.78"/>
<circle cx="198.2" cy="126.1" r="2.32" opacity="0.79"/>
<circle cx="200.8" cy="124.4" r="2.38" opacity="0.81"/>
<rect x="199.3" y="121.8" width="8.4" height="1.8" rx="0.9" transform="rotate(-32.9 203.5 122.7)" opacity="0.82"/>
<circle cx="206.2" cy="121.0" r="2.50" opacity="0.83"/>
<circle cx="208.9" cy="119.2" r="2.56" opacity="0.84"/>
<circle cx="211.5" cy="117.5" r="2.58" opacity="0.85"/>
<circle cx="214.2" cy="115.8" r="2.52" opacity="0.83"/>
<circle cx="216.9" cy="114.0" r="2.46" opacity="0.82"/>
<circle cx="219.6" cy="112.3" r="2.41" opacity="0.81"/>
<circle cx="222.3" cy="110.6" r="2.35" opacity="0.80"/>
<circle cx="224.9" cy="108.8" r="2.29" opacity="0.79"/>
<rect x="223.4" y="106.2" width="8.4" height="1.8" rx="0.9" transform="rotate(-32.4 227.6 107.1)" opacity="0.78"/>
<circle cx="230.3" cy="105.4" r="2.17" opacity="0.76"/>
<circle cx="233.0" cy="103.8" r="2.12" opacity="0.75"/>
<circle cx="235.6" cy="102.1" r="2.06" opacity="0.74"/>
<circle cx="238.3" cy="100.4" r="2.00" opacity="0.73"/>
<circle cx="241.0" cy="98.8" r="1.95" opacity="0.72"/>
<circle cx="243.7" cy="97.2" r="1.89" opacity="0.71"/>
<circle cx="246.4" cy="95.6" r="1.84" opacity="0.70"/>
<circle cx="249.0" cy="94.0" r="1.78" opacity="0.69"/>
<rect x="247.5" y="91.5" width="8.4" height="1.8" rx="0.9" transform="rotate(-29.9 251.7 92.4)" opacity="0.68"/>
<circle cx="254.4" cy="90.9" r="1.68" opacity="0.66"/>
<circle cx="257.1" cy="89.4" r="1.63" opacity="0.65"/>
<circle cx="259.7" cy="87.9" r="1.58" opacity="0.64"/>
<circle cx="262.4" cy="86.4" r="1.53" opacity="0.63"/>
<circle cx="265.1" cy="85.0" r="1.48" opacity="0.62"/>
<circle cx="267.8" cy="83.6" r="1.43" opacity="0.62"/>
<circle cx="270.5" cy="82.3" r="1.39" opacity="0.61"/>
<circle cx="273.1" cy="81.0" r="1.34" opacity="0.60"/>
<rect x="271.6" y="78.8" width="8.4" height="1.8" rx="0.9" transform="rotate(-25.2 275.8 79.7)" opacity="0.59"/>
<circle cx="278.5" cy="78.4" r="1.26" opacity="0.58"/>
<circle cx="281.2" cy="77.2" r="1.22" opacity="0.57"/>
<circle cx="283.8" cy="76.1" r="1.18" opacity="0.56"/>
<circle cx="286.5" cy="74.9" r="1.14" opacity="0.56"/>
<circle cx="289.2" cy="73.8" r="1.10" opacity="0.55"/>
<circle cx="291.9" cy="72.8" r="1.07" opacity="0.54"/>
<circle cx="294.6" cy="71.8" r="1.03" opacity="0.53"/>
<circle cx="297.2" cy="70.8" r="1.00" opacity="0.53"/>
<rect x="295.7" y="69.0" width="8.4" height="1.8" rx="0.9" transform="rotate(-18.2 299.9 69.9)" opacity="0.52"/>
<circle cx="302.6" cy="69.0" r="0.94" opacity="0.52"/>
<circle cx="305.3" cy="68.2" r="0.91" opacity="0.51"/>
<circle cx="307.9" cy="67.5" r="0.88" opacity="0.50"/>
<circle cx="310.6" cy="66.7" r="0.86" opacity="0.50"/>
<circle cx="313.3" cy="66.1" r="0.84" opacity="0.50"/>
<circle cx="316.0" cy="65.4" r="0.82" opacity="0.49"/>
<circle cx="318.7" cy="64.9" r="0.80" opacity="0.49"/>
<circle cx="321.3" cy="64.3" r="0.78" opacity="0.48"/>
<rect x="319.8" y="63.0" width="8.4" height="1.8" rx="0.9" transform="rotate(-9.2 324.0 63.9)" opacity="0.48"/>
<circle cx="326.7" cy="63.4" r="0.75" opacity="0.48"/>
<circle cx="329.4" cy="63.1" r="0.74" opacity="0.47"/>
<circle cx="332.1" cy="62.8" r="0.73" opacity="0.47"/>
<circle cx="334.7" cy="62.5" r="0.72" opacity="0.47"/>
<circle cx="337.4" cy="62.3" r="0.71" opacity="0.47"/>
<circle cx="340.1" cy="62.1" r="0.71" opacity="0.47"/>
<circle cx="342.8" cy="62.0" r="0.70" opacity="0.47"/>
<circle cx="345.4" cy="62.0" r="0.70" opacity="0.47"/>
<rect x="343.9" y="61.1" width="8.4" height="1.8" rx="0.9" transform="rotate(1.0 348.1 62.0)" opacity="0.47"/>
<circle cx="350.8" cy="62.1" r="0.70" opacity="0.47"/>
<circle cx="353.5" cy="62.2" r="0.71" opacity="0.47"/>
<circle cx="356.2" cy="62.4" r="0.71" opacity="0.47"/>
<circle cx="358.8" cy="62.6" r="0.72" opacity="0.47"/>
<circle cx="361.5" cy="62.9" r="0.73" opacity="0.47"/>
<circle cx="364.2" cy="63.2" r="0.74" opacity="0.48"/>
<circle cx="366.9" cy="63.6" r="0.75" opacity="0.48"/>
<circle cx="369.5" cy="64.0" r="0.77" opacity="0.48"/>
<rect x="368.0" y="63.6" width="8.4" height="1.8" rx="0.9" transform="rotate(11.1 372.2 64.5)" opacity="0.48"/>
<circle cx="374.9" cy="65.0" r="0.80" opacity="0.49"/>
<circle cx="377.6" cy="65.6" r="0.82" opacity="0.49"/>
<circle cx="380.3" cy="66.3" r="0.84" opacity="0.50"/>
<circle cx="382.9" cy="67.0" r="0.87" opacity="0.50"/>
<circle cx="385.6" cy="67.7" r="0.89" opacity="0.51"/>
<circle cx="388.3" cy="68.5" r="0.92" opacity="0.51"/>
<circle cx="391.0" cy="69.3" r="0.95" opacity="0.52"/>
<circle cx="393.6" cy="70.2" r="0.98" opacity="0.52"/>
<rect x="392.1" y="70.2" width="8.4" height="1.8" rx="0.9" transform="rotate(19.7 396.3 71.1)" opacity="0.53"/>
<circle cx="399.0" cy="72.1" r="1.04" opacity="0.54"/>
<circle cx="401.7" cy="73.1" r="1.08" opacity="0.54"/>
<circle cx="404.4" cy="74.2" r="1.11" opacity="0.55"/>
<circle cx="407.0" cy="75.3" r="1.15" opacity="0.56"/>
<circle cx="409.7" cy="76.4" r="1.19" opacity="0.57"/>
<circle cx="412.4" cy="77.6" r="1.23" opacity="0.57"/>
<circle cx="415.1" cy="78.8" r="1.27" opacity="0.58"/>
<circle cx="417.7" cy="80.1" r="1.31" opacity="0.59"/>
<rect x="416.2" y="80.5" width="8.4" height="1.8" rx="0.9" transform="rotate(26.3 420.4 81.4)" opacity="0.60"/>
<circle cx="423.1" cy="82.7" r="1.40" opacity="0.61"/>
<circle cx="425.8" cy="84.1" r="1.45" opacity="0.62"/>
<circle cx="428.5" cy="85.5" r="1.50" opacity="0.63"/>
<circle cx="431.1" cy="86.9" r="1.54" opacity="0.64"/>
<circle cx="433.8" cy="88.4" r="1.59" opacity="0.65"/>
<circle cx="436.5" cy="89.9" r="1.64" opacity="0.66"/>
<circle cx="439.2" cy="91.4" r="1.70" opacity="0.67"/>
<circle cx="441.8" cy="92.9" r="1.75" opacity="0.68"/>
<rect x="440.3" y="93.6" width="8.4" height="1.8" rx="0.9" transform="rotate(30.6 444.5 94.5)" opacity="0.69"/>
<circle cx="447.2" cy="96.1" r="1.86" opacity="0.70"/>
<circle cx="449.9" cy="97.7" r="1.91" opacity="0.71"/>
<circle cx="452.6" cy="99.3" r="1.97" opacity="0.72"/>
<circle cx="455.2" cy="100.9" r="2.02" opacity="0.73"/>
<circle cx="457.9" cy="102.6" r="2.08" opacity="0.74"/>
<circle cx="460.6" cy="104.3" r="2.13" opacity="0.76"/>
<circle cx="463.3" cy="106.0" r="2.19" opacity="0.77"/>
<circle cx="465.9" cy="107.7" r="2.25" opacity="0.78"/>
<rect x="464.4" y="108.5" width="8.4" height="1.8" rx="0.9" transform="rotate(32.7 468.6 109.4)" opacity="0.79"/>
<circle cx="471.3" cy="111.1" r="2.37" opacity="0.80"/>
<circle cx="474.0" cy="112.8" r="2.42" opacity="0.81"/>
<circle cx="476.7" cy="114.6" r="2.48" opacity="0.83"/>
<circle cx="479.3" cy="116.3" r="2.54" opacity="0.84"/>
<circle cx="482.0" cy="118.0" r="2.60" opacity="0.85"/>
<circle cx="484.7" cy="119.8" r="2.54" opacity="0.84"/>
<circle cx="487.4" cy="121.5" r="2.48" opacity="0.83"/>
<circle cx="490.0" cy="123.2" r="2.42" opacity="0.81"/>
<rect x="488.5" y="124.1" width="8.4" height="1.8" rx="0.9" transform="rotate(32.7 492.7 125.0)" opacity="0.80"/>
<circle cx="495.4" cy="126.7" r="2.31" opacity="0.79"/>
<circle cx="498.1" cy="128.4" r="2.25" opacity="0.78"/>
<circle cx="500.8" cy="130.1" r="2.19" opacity="0.77"/>
<circle cx="503.4" cy="131.8" r="2.13" opacity="0.76"/>
<circle cx="506.1" cy="133.5" r="2.08" opacity="0.74"/>
<circle cx="508.8" cy="135.1" r="2.02" opacity="0.73"/>
<circle cx="511.5" cy="136.8" r="1.96" opacity="0.72"/>
<circle cx="514.1" cy="138.4" r="1.91" opacity="0.71"/>
<rect x="512.6" y="139.1" width="8.4" height="1.8" rx="0.9" transform="rotate(30.7 516.8 140.0)" opacity="0.70"/>
<circle cx="519.5" cy="141.6" r="1.80" opacity="0.69"/>
<circle cx="522.2" cy="143.2" r="1.75" opacity="0.68"/>
<circle cx="524.9" cy="144.7" r="1.69" opacity="0.67"/>
<circle cx="527.5" cy="146.2" r="1.64" opacity="0.66"/>
<circle cx="530.2" cy="147.7" r="1.59" opacity="0.65"/>
<circle cx="532.9" cy="149.2" r="1.54" opacity="0.64"/>
<circle cx="535.6" cy="150.6" r="1.49" opacity="0.63"/>
<circle cx="538.2" cy="152.0" r="1.45" opacity="0.62"/>
<rect x="536.7" y="152.5" width="8.4" height="1.8" rx="0.9" transform="rotate(26.6 540.9 153.4)" opacity="0.61"/>
<circle cx="543.6" cy="154.7" r="1.36" opacity="0.60"/>
<circle cx="546.3" cy="156.0" r="1.31" opacity="0.59"/>
<circle cx="549.0" cy="157.2" r="1.27" opacity="0.58"/>
<circle cx="551.6" cy="158.5" r="1.23" opacity="0.57"/>
<circle cx="554.3" cy="159.6" r="1.19" opacity="0.57"/>
<circle cx="557.0" cy="160.8" r="1.15" opacity="0.56"/>
<circle cx="559.7" cy="161.9" r="1.11" opacity="0.55"/>
<circle cx="562.3" cy="162.9" r="1.08" opacity="0.54"/>
<rect x="560.8" y="163.1" width="8.4" height="1.8" rx="0.9" transform="rotate(20.1 565.0 164.0)" opacity="0.54"/>
<circle cx="567.7" cy="164.9" r="1.01" opacity="0.53"/>
<circle cx="570.4" cy="165.8" r="0.98" opacity="0.52"/>
<circle cx="573.1" cy="166.7" r="0.95" opacity="0.52"/>
<circle cx="575.7" cy="167.6" r="0.92" opacity="0.51"/>
<circle cx="578.4" cy="168.3" r="0.89" opacity="0.51"/>
<circle cx="581.1" cy="169.1" r="0.87" opacity="0.50"/>
<circle cx="583.8" cy="169.8" r="0.84" opacity="0.50"/>
<circle cx="586.4" cy="170.4" r="0.82" opacity="0.49"/>
<rect x="584.9" y="170.1" width="8.4" height="1.8" rx="0.9" transform="rotate(11.6 589.1 171.0)" opacity="0.49"/>
<circle cx="591.8" cy="171.5" r="0.78" opacity="0.48"/>
<circle cx="594.5" cy="172.0" r="0.77" opacity="0.48"/>
<circle cx="597.2" cy="172.4" r="0.75" opacity="0.48"/>
<circle cx="599.8" cy="172.8" r="0.74" opacity="0.48"/>
<circle cx="602.5" cy="173.2" r="0.73" opacity="0.47"/>
<circle cx="605.2" cy="173.4" r="0.72" opacity="0.47"/>
<circle cx="607.9" cy="173.6" r="0.71" opacity="0.47"/>
<circle cx="610.5" cy="173.8" r="0.71" opacity="0.47"/>
<rect x="609.0" y="173.0" width="8.4" height="1.8" rx="0.9" transform="rotate(1.6 613.2 173.9)" opacity="0.47"/>
<circle cx="615.9" cy="174.0" r="0.70" opacity="0.47"/>
<circle cx="618.6" cy="174.0" r="0.70" opacity="0.47"/>
<circle cx="621.3" cy="173.9" r="0.70" opacity="0.47"/>
<circle cx="623.9" cy="173.8" r="0.71" opacity="0.47"/>
<circle cx="626.6" cy="173.7" r="0.71" opacity="0.47"/>
<circle cx="629.3" cy="173.5" r="0.72" opacity="0.47"/>
<circle cx="632.0" cy="173.2" r="0.73" opacity="0.47"/>
<circle cx="634.6" cy="172.9" r="0.74" opacity="0.47"/>
<rect x="633.1" y="171.6" width="8.4" height="1.8" rx="0.9" transform="rotate(-8.6 637.3 172.5)" opacity="0.48"/>
<circle cx="640.0" cy="172.1" r="0.76" opacity="0.48"/>
</g>
<g fill="#A9AEE6">
<circle cx="0.0" cy="151.5" r="1.46" opacity="0.51"/>
<circle cx="4.3" cy="149.2" r="1.54" opacity="0.52"/>
<circle cx="8.6" cy="146.9" r="1.62" opacity="0.54"/>
<circle cx="12.9" cy="144.5" r="1.70" opacity="0.55"/>
<circle cx="17.2" cy="142.0" r="1.79" opacity="0.57"/>
<circle cx="21.5" cy="139.4" r="1.87" opacity="0.58"/>
<circle cx="25.8" cy="136.8" r="1.96" opacity="0.59"/>
<circle cx="30.1" cy="134.2" r="2.05" opacity="0.61"/>
<circle cx="34.4" cy="131.5" r="2.14" opacity="0.62"/>
<circle cx="38.7" cy="128.8" r="2.23" opacity="0.64"/>
<circle cx="43.0" cy="126.0" r="2.33" opacity="0.65"/>
<circle cx="47.2" cy="123.3" r="2.42" opacity="0.67"/>
<circle cx="51.5" cy="120.5" r="2.52" opacity="0.69"/>
<circle cx="55.8" cy="117.7" r="2.59" opacity="0.70"/>
<circle cx="60.1" cy="114.9" r="2.50" opacity="0.68"/>
<circle cx="64.4" cy="112.1" r="2.40" opacity="0.67"/>
<circle cx="68.7" cy="109.4" r="2.31" opacity="0.65"/>
<circle cx="73.0" cy="106.6" r="2.21" opacity="0.64"/>
<circle cx="77.3" cy="103.9" r="2.12" opacity="0.62"/>
<circle cx="81.6" cy="101.2" r="2.03" opacity="0.61"/>
<circle cx="85.9" cy="98.6" r="1.94" opacity="0.59"/>
<circle cx="90.2" cy="96.0" r="1.85" opacity="0.58"/>
<circle cx="94.5" cy="93.5" r="1.77" opacity="0.56"/>
<circle cx="98.8" cy="91.0" r="1.68" opacity="0.55"/>
<circle cx="103.1" cy="88.6" r="1.60" opacity="0.53"/>
<circle cx="107.4" cy="86.3" r="1.52" opacity="0.52"/>
<circle cx="111.7" cy="84.0" r="1.45" opacity="0.51"/>
<circle cx="116.0" cy="81.8" r="1.37" opacity="0.50"/>
<circle cx="120.3" cy="79.8" r="1.30" opacity="0.48"/>
<circle cx="124.6" cy="77.8" r="1.24" opacity="0.47"/>
<circle cx="128.9" cy="75.9" r="1.17" opacity="0.46"/>
<circle cx="133.2" cy="74.1" r="1.11" opacity="0.45"/>
<circle cx="137.4" cy="72.4" r="1.05" opacity="0.44"/>
<circle cx="141.7" cy="70.9" r="1.00" opacity="0.43"/>
<circle cx="146.0" cy="69.4" r="0.95" opacity="0.43"/>
<circle cx="150.3" cy="68.1" r="0.91" opacity="0.42"/>
<circle cx="154.6" cy="66.9" r="0.87" opacity="0.41"/>
<circle cx="158.9" cy="65.8" r="0.83" opacity="0.41"/>
<circle cx="163.2" cy="64.9" r="0.80" opacity="0.40"/>
<circle cx="167.5" cy="64.1" r="0.77" opacity="0.40"/>
<circle cx="171.8" cy="63.4" r="0.75" opacity="0.39"/>
<circle cx="176.1" cy="62.8" r="0.73" opacity="0.39"/>
<circle cx="180.4" cy="62.4" r="0.71" opacity="0.39"/>
<circle cx="184.7" cy="62.1" r="0.71" opacity="0.39"/>
<circle cx="189.0" cy="62.0" r="0.70" opacity="0.39"/>
<circle cx="193.3" cy="62.0" r="0.70" opacity="0.39"/>
<circle cx="197.6" cy="62.2" r="0.71" opacity="0.39"/>
<circle cx="201.9" cy="62.4" r="0.72" opacity="0.39"/>
<circle cx="206.2" cy="62.9" r="0.73" opacity="0.39"/>
<circle cx="210.5" cy="63.4" r="0.75" opacity="0.39"/>
<circle cx="214.8" cy="64.1" r="0.77" opacity="0.40"/>
<circle cx="219.1" cy="64.9" r="0.80" opacity="0.40"/>
<circle cx="223.4" cy="65.9" r="0.83" opacity="0.41"/>
<circle cx="227.7" cy="67.0" r="0.87" opacity="0.41"/>
<circle cx="231.9" cy="68.2" r="0.91" opacity="0.42"/>
<circle cx="236.2" cy="69.5" r="0.96" opacity="0.43"/>
<circle cx="240.5" cy="71.0" r="1.00" opacity="0.44"/>
<circle cx="244.8" cy="72.6" r="1.06" opacity="0.44"/>
<circle cx="249.1" cy="74.2" r="1.12" opacity="0.45"/>
<circle cx="253.4" cy="76.0" r="1.18" opacity="0.46"/>
<circle cx="257.7" cy="77.9" r="1.24" opacity="0.47"/>
<circle cx="262.0" cy="79.9" r="1.31" opacity="0.49"/>
<circle cx="266.3" cy="82.0" r="1.38" opacity="0.50"/>
<circle cx="270.6" cy="84.2" r="1.45" opacity="0.51"/>
<circle cx="274.9" cy="86.4" r="1.53" opacity="0.52"/>
<circle cx="279.2" cy="88.8" r="1.61" opacity="0.54"/>
<circle cx="283.5" cy="91.2" r="1.69" opacity="0.55"/>
<circle cx="287.8" cy="93.7" r="1.77" opacity="0.56"/>
<circle cx="292.1" cy="96.2" r="1.86" opacity="0.58"/>
<circle cx="296.4" cy="98.8" r="1.95" opacity="0.59"/>
<circle cx="300.7" cy="101.4" r="2.04" opacity="0.61"/>
<circle cx="305.0" cy="104.1" r="2.13" opacity="0.62"/>
<circle cx="309.3" cy="106.8" r="2.22" opacity="0.64"/>
<circle cx="313.6" cy="109.6" r="2.31" opacity="0.65"/>
<circle cx="317.9" cy="112.4" r="2.41" opacity="0.67"/>
<circle cx="322.1" cy="115.1" r="2.50" opacity="0.68"/>
<circle cx="326.4" cy="117.9" r="2.60" opacity="0.70"/>
<circle cx="330.7" cy="120.7" r="2.51" opacity="0.68"/>
<circle cx="335.0" cy="123.5" r="2.41" opacity="0.67"/>
<circle cx="339.3" cy="126.2" r="2.32" opacity="0.65"/>
<circle cx="343.6" cy="129.0" r="2.23" opacity="0.64"/>
<circle cx="347.9" cy="131.7" r="2.13" opacity="0.62"/>
<circle cx="352.2" cy="134.4" r="2.04" opacity="0.61"/>
<circle cx="356.5" cy="137.0" r="1.95" opacity="0.59"/>
<circle cx="360.8" cy="139.6" r="1.87" opacity="0.58"/>
<circle cx="365.1" cy="142.2" r="1.78" opacity="0.56"/>
<circle cx="369.4" cy="144.7" r="1.70" opacity="0.55"/>
<circle cx="373.7" cy="147.1" r="1.61" opacity="0.54"/>
<circle cx="378.0" cy="149.4" r="1.53" opacity="0.52"/>
<circle cx="382.3" cy="151.7" r="1.46" opacity="0.51"/>
<circle cx="386.6" cy="153.9" r="1.38" opacity="0.50"/>
<circle cx="390.9" cy="156.0" r="1.31" opacity="0.49"/>
<circle cx="395.2" cy="158.0" r="1.24" opacity="0.48"/>
<circle cx="399.5" cy="159.9" r="1.18" opacity="0.46"/>
<circle cx="403.8" cy="161.7" r="1.12" opacity="0.45"/>
<circle cx="408.1" cy="163.4" r="1.06" opacity="0.44"/>
<circle cx="412.3" cy="164.9" r="1.01" opacity="0.44"/>
<circle cx="416.6" cy="166.4" r="0.96" opacity="0.43"/>
<circle cx="420.9" cy="167.7" r="0.91" opacity="0.42"/>
<circle cx="425.2" cy="169.0" r="0.87" opacity="0.41"/>
<circle cx="429.5" cy="170.0" r="0.83" opacity="0.41"/>
<circle cx="433.8" cy="171.0" r="0.80" opacity="0.40"/>
<circle cx="438.1" cy="171.8" r="0.77" opacity="0.40"/>
<circle cx="442.4" cy="172.5" r="0.75" opacity="0.39"/>
<circle cx="446.7" cy="173.1" r="0.73" opacity="0.39"/>
<circle cx="451.0" cy="173.5" r="0.72" opacity="0.39"/>
<circle cx="455.3" cy="173.8" r="0.71" opacity="0.39"/>
<circle cx="459.6" cy="174.0" r="0.70" opacity="0.39"/>
<circle cx="463.9" cy="174.0" r="0.70" opacity="0.39"/>
<circle cx="468.2" cy="173.9" r="0.70" opacity="0.39"/>
<circle cx="472.5" cy="173.6" r="0.71" opacity="0.39"/>
<circle cx="476.8" cy="173.2" r="0.73" opacity="0.39"/>
<circle cx="481.1" cy="172.7" r="0.75" opacity="0.39"/>
<circle cx="485.4" cy="172.0" r="0.77" opacity="0.40"/>
<circle cx="489.7" cy="171.2" r="0.80" opacity="0.40"/>
<circle cx="494.0" cy="170.2" r="0.83" opacity="0.41"/>
<circle cx="498.3" cy="169.2" r="0.86" opacity="0.41"/>
<circle cx="502.6" cy="168.0" r="0.90" opacity="0.42"/>
<circle cx="506.8" cy="166.7" r="0.95" opacity="0.43"/>
<circle cx="511.1" cy="165.2" r="1.00" opacity="0.43"/>
<circle cx="515.4" cy="163.7" r="1.05" opacity="0.44"/>
<circle cx="519.7" cy="162.0" r="1.11" opacity="0.45"/>
<circle cx="524.0" cy="160.2" r="1.17" opacity="0.46"/>
<circle cx="528.3" cy="158.3" r="1.23" opacity="0.47"/>
<circle cx="532.6" cy="156.4" r="1.30" opacity="0.48"/>
<circle cx="536.9" cy="154.3" r="1.37" opacity="0.50"/>
<circle cx="541.2" cy="152.1" r="1.44" opacity="0.51"/>
<circle cx="545.5" cy="149.9" r="1.52" opacity="0.52"/>
<circle cx="549.8" cy="147.5" r="1.60" opacity="0.53"/>
<circle cx="554.1" cy="145.1" r="1.68" opacity="0.55"/>
<circle cx="558.4" cy="142.7" r="1.76" opacity="0.56"/>
<circle cx="562.7" cy="140.1" r="1.85" opacity="0.58"/>
<circle cx="567.0" cy="137.5" r="1.94" opacity="0.59"/>
<circle cx="571.3" cy="134.9" r="2.03" opacity="0.60"/>
<circle cx="575.6" cy="132.2" r="2.12" opacity="0.62"/>
<circle cx="579.9" cy="129.5" r="2.21" opacity="0.64"/>
<circle cx="584.2" cy="126.8" r="2.30" opacity="0.65"/>
<circle cx="588.5" cy="124.0" r="2.40" opacity="0.67"/>
<circle cx="592.8" cy="121.2" r="2.49" opacity="0.68"/>
<circle cx="597.0" cy="118.5" r="2.58" opacity="0.70"/>
<circle cx="601.3" cy="115.7" r="2.52" opacity="0.69"/>
<circle cx="605.6" cy="112.9" r="2.43" opacity="0.67"/>
<circle cx="609.9" cy="110.1" r="2.33" opacity="0.66"/>
<circle cx="614.2" cy="107.4" r="2.24" opacity="0.64"/>
<circle cx="618.5" cy="104.7" r="2.15" opacity="0.62"/>
<circle cx="622.8" cy="102.0" r="2.06" opacity="0.61"/>
<circle cx="627.1" cy="99.3" r="1.97" opacity="0.59"/>
<circle cx="631.4" cy="96.7" r="1.88" opacity="0.58"/>
<circle cx="635.7" cy="94.2" r="1.79" opacity="0.57"/>
<circle cx="640.0" cy="91.7" r="1.71" opacity="0.55"/>
</g>
</svg>
